# xmcd
#
# Track frame offsets:
#	150
#	17475
#	34985
#	45840
#	55070
#	65922
#	78880
#	93397
#	107357
#	118560
#	127922
#	135885
#	156320
#	171650
#	184017
#	196747
#	209347
#	220920
#
# Disc length: 3146 seconds
# Revision: 2
# Processed by: cddbd v1.5.2PL0 Copyright (c) Steve Scherf et al.
# Submitted via: dBpowerAMP V12.0
#
DISCID=ed0c4812
DTITLE=Various Artist - Direction Nashville
DYEAR=1993
DGENRE=Country
TTITLE0=Steve Bivins - Love Is The Father
TTITLE1=Dale Stumbo - Dost On Your Shelf
TTITLE2=Lana Brown - P Is Burning
TTITLE3=Dale T Sharp - The Walking Song
TTITLE4=Steve Bivins - Good Morning Sunshine State
TTITLE5=Dale Stumbo, Townes Van Zandt - Hobo's Lullabye
TTITLE6=Dale Stumbo, Townes Van Zandt - Sage
TTITLE7=Denise Benson - Boca Grande
TTITLE8=Dale Stumbo - Little Paradise
TTITLE9=Denise Benson, Joe Sun - Life From The Well
TTITLE10=Instrumental - Break Rag
TTITLE11=Lana Brown - Flying On The Wings Of America
TTITLE12=Denise Benson, Richard Dobson - Lines
TTITLE13=Lana Brown - Another Lonely Summer
TTITLE14=Dale Stumbo - Gin Suckin' Buddy
TTITLE15=Mike Dunbar, Cathryn Craig - Sarah Louise
TTITLE16=Lana Brow - Country Blues
TTITLE17=Steve Bivins - Running In And Out Of Love
EXTD=
EXTT0=
EXTT1=
EXTT2=
EXTT3=
EXTT4=
EXTT5=
EXTT6=
EXTT7=
EXTT8=
EXTT9=
EXTT10=
EXTT11=
EXTT12=
EXTT13=
EXTT14=
EXTT15=
EXTT16=
EXTT17=
PLAYORDER=
